<?xml version="1.0" encoding="UTF-8"?>
<svg id="_レイヤー_2" data-name="レイヤー 2" xmlns="http://www.w3.org/2000/svg" viewBox="0 0 588.18 588.18">
  <defs>
    <style>
      .cls-1, .cls-2, .cls-3 {
        fill: #ecbf52;
      }

      .cls-4 {
        stroke-width: 21.84px;
      }

      .cls-4, .cls-5, .cls-6 {
        fill: none;
        stroke: #fcf1d2;
        stroke-miterlimit: 10;
      }

      .cls-2 {
        font-family: Roboto-Bold, Roboto;
        font-weight: 700;
      }

      .cls-2, .cls-3 {
        font-size: 25px;
      }

      .cls-5 {
        stroke-width: 4px;
      }

      .cls-6 {
        stroke-width: 5.58px;
      }

      .cls-3 {
        font-family: KozGoPr6N-Regular-90ms-RKSJ-H, 'Kozuka Gothic Pr6N';
      }
    </style>
  </defs>
  <g id="_レイヤー_6" data-name="レイヤー 6">
    <g>
      <text class="cls-2" transform="translate(96.79 163.15) rotate(-54.16)"><tspan x="0" y="0">G</tspan></text>
      <text class="cls-2" transform="translate(106.59 149.55) rotate(-49.99)"><tspan x="0" y="0">O</tspan></text>
      <text class="cls-2" transform="translate(117.5 136.54) rotate(-45.82)"><tspan x="0" y="0">O</tspan></text>
      <text class="cls-2" transform="translate(129.35 124.36) rotate(-41.79)"><tspan x="0" y="0">D</tspan></text>
      <text class="cls-2" transform="translate(141.4 113.74) rotate(-39.1)"><tspan x="0" y="0"> </tspan></text>
      <text class="cls-2" transform="translate(146.07 109.84) rotate(-36.72)"><tspan x="0" y="0">F</tspan></text>
      <text class="cls-2" transform="translate(156.81 101.75) rotate(-33.03)"><tspan x="0" y="0">O</tspan></text>
      <text class="cls-2" transform="translate(171.06 92.48) rotate(-28.92)"><tspan x="0" y="0">O</tspan></text>
      <text class="cls-2" transform="translate(185.92 84.27) rotate(-24.94)"><tspan x="0" y="0">D</tspan></text>
      <text class="cls-2" transform="translate(200.54 77.6) rotate(-22.26)"><tspan x="0" y="0"> </tspan></text>
      <text class="cls-3" transform="translate(200.49 77.95) rotate(-20.04)"><tspan x="0" y="0">・</tspan></text>
      <text class="cls-2" transform="translate(217.76 71.06) rotate(-17.82)"><tspan x="0" y="0"> </tspan></text>
      <text class="cls-2" transform="translate(223.47 69.08) rotate(-15.07)"><tspan x="0" y="0">G</tspan></text>
      <text class="cls-2" transform="translate(239.66 64.71) rotate(-11.02)"><tspan x="0" y="0">O</tspan></text>
      <text class="cls-2" transform="translate(256.33 61.46) rotate(-6.97)"><tspan x="0" y="0">O</tspan></text>
      <text class="cls-2" transform="translate(273.19 59.4) rotate(-3.07)"><tspan x="0" y="0">D</tspan></text>
      <text class="cls-2" transform="translate(295.81 57.85) rotate(3.46)"><tspan x="0" y="0">D</tspan></text>
      <text class="cls-2" transform="translate(311.76 58.81) rotate(7.18)"><tspan x="0" y="0">R</tspan></text>
      <text class="cls-2" transform="translate(327.39 60.88) rotate(9.9)"><tspan x="0" y="0">I</tspan></text>
      <text class="cls-2" transform="translate(334.39 61.96) rotate(12.83)"><tspan x="0" y="0">N</tspan></text>
      <text class="cls-2" transform="translate(351.32 65.84) rotate(16.78)"><tspan x="0" y="0">K</tspan></text>
      <text class="cls-3" transform="translate(361.86 69.33) rotate(20.56)"><tspan x="0" y="0">・</tspan></text>
      <text class="cls-2" transform="translate(381.08 75.86) rotate(24.49)"><tspan x="0" y="0">G</tspan></text>
      <text class="cls-2" transform="translate(396.32 82.79) rotate(28.57)"><tspan x="0" y="0">O</tspan></text>
      <text class="cls-2" transform="translate(411.24 90.9) rotate(32.67)"><tspan x="0" y="0">O</tspan></text>
      <text class="cls-2" transform="translate(425.52 100.06) rotate(36.66)"><tspan x="0" y="0">D</tspan></text>
      <text class="cls-2" transform="translate(438.33 109.74) rotate(39.34)"><tspan x="0" y="0"> </tspan></text>
      <text class="cls-2" transform="translate(442.61 112.83) rotate(42.9)"><tspan x="0" y="0">T</tspan></text>
      <text class="cls-2" transform="translate(453.86 123.27) rotate(44.48)"><tspan x="0" y="0">I</tspan></text>
      <text class="cls-2" transform="translate(459.04 128.03) rotate(47.98)"><tspan x="0" y="0">M</tspan></text>
      <text class="cls-2" transform="translate(473.4 144.18) rotate(52.33)"><tspan x="0" y="0">E</tspan></text>
    </g>
    <path class="cls-5" d="M68.2,254.37c17.83-108.1,111.73-190.55,224.88-190.55"/>
    <path class="cls-6" d="M517.2,250.05c2.5,13.52,3.8,27.45,3.8,41.69,0,125.88-102.05,227.93-227.93,227.93-115.56,0-211.04-86-225.91-197.5"/>
    <path class="cls-5" d="M293.08,63.81c78.68,0,148.04,39.86,189,100.49"/>
    <circle class="cls-5" cx="294.09" cy="294.09" r="259.28"/>
    <circle class="cls-4" cx="294.09" cy="294.09" r="283.17"/>
    <text/>
    <g>
      <text class="cls-2" transform="translate(177.45 515.89) rotate(28.24)"><tspan x="0" y="0">A</tspan></text>
      <text class="cls-2" transform="translate(192.68 523.9) rotate(25.33)"><tspan x="0" y="0"> </tspan></text>
      <text class="cls-2" transform="translate(198.03 526.57) rotate(22.68)"><tspan x="0" y="0">P</tspan></text>
      <text class="cls-2" transform="translate(212.35 532.52) rotate(19.2)"><tspan x="0" y="0">L</tspan></text>
      <text class="cls-2" transform="translate(225.69 537.2) rotate(15.32)"><tspan x="0" y="0">A</tspan></text>
      <text class="cls-2" transform="translate(242.05 541.66) rotate(11.2)"><tspan x="0" y="0">C</tspan></text>
      <text class="cls-2" transform="translate(257.59 544.72) rotate(7.58)"><tspan x="0" y="0">E</tspan></text>
      <text class="cls-2" transform="translate(271.67 546.5) rotate(5.06)"><tspan x="0" y="0"> </tspan></text>
      <text class="cls-2" transform="translate(277.35 547.11) rotate(2.56)"><tspan x="0" y="0">T</tspan></text>
      <text class="cls-2" transform="translate(292.3 547.82) rotate(-1.27)"><tspan x="0" y="0">O</tspan></text>
      <text class="cls-2" transform="translate(309.48 547.31) rotate(-4.11)"><tspan x="0" y="0"> </tspan></text>
      <text class="cls-2" transform="translate(315.39 546.97) rotate(-6.51)"><tspan x="0" y="0">E</tspan></text>
      <text class="cls-2" transform="translate(329.02 545.48) rotate(-10.31)"><tspan x="0" y="0">N</tspan></text>
      <text class="cls-2" transform="translate(346.02 542.34) rotate(-14.12)"><tspan x="0" y="0">J</tspan></text>
      <text class="cls-2" transform="translate(359.03 539.13) rotate(-17.82)"><tspan x="0" y="0">O</tspan></text>
      <text class="cls-2" transform="translate(375.07 533.95) rotate(-21.73)"><tspan x="0" y="0">Y</tspan></text>
      <polygon class="cls-1" points="396.7 504.46 401.92 507.55 407.67 505.61 406.34 511.53 409.96 516.4 403.92 516.97 400.41 521.92 398 516.35 392.21 514.54 396.76 510.52 396.7 504.46"/>
      <polygon class="cls-1" points="416.58 492.09 422.04 494.75 427.61 492.36 426.76 498.37 430.76 502.94 424.78 503.98 421.68 509.2 418.83 503.84 412.92 502.49 417.13 498.13 416.58 492.09"/>
      <polygon class="cls-1" points="436.71 478.24 442.31 480.57 447.73 477.86 447.25 483.9 451.51 488.22 445.6 489.63 442.81 495.01 439.65 489.83 433.67 488.84 437.62 484.24 436.71 478.24"/>
      <polygon class="cls-1" points="170.93 493.86 165.44 496.45 159.9 493.98 160.66 500 156.6 504.51 162.56 505.64 165.6 510.89 168.52 505.58 174.45 504.31 170.3 499.89 170.93 493.86"/>
      <polygon class="cls-1" points="152.29 479.68 146.62 481.82 141.29 478.92 141.57 484.98 137.16 489.15 143.01 490.76 145.62 496.23 148.95 491.17 154.97 490.38 151.18 485.64 152.29 479.68"/>
      <polygon class="cls-1" points="133.56 464.01 127.76 465.8 122.61 462.59 122.53 468.66 117.89 472.56 123.63 474.51 125.91 480.13 129.54 475.27 135.59 474.85 132.09 469.89 133.56 464.01"/>
    </g>
    <g>
      <path class="cls-1" d="M99.4,265.6c-.39.7-1.71,3-3.97,6.9-2.26,3.9-5.08,8.43-8.46,13.57-3.39,5.15-6.95,9.08-10.68,11.81-3.74,2.73-8.56,4.17-14.48,4.28-4.83.09-8.89-1.1-12.2-3.54-3.31-2.44-4.96-5.81-4.96-10.06,0-3.85,1.54-7.1,4.61-9.78,3.07-2.68,6.91-4.05,11.5-4.13,4.2-.08,7.76.93,10.68,3.04,2.92,2.11,4.38,5.04,4.38,8.82,0,1.62-.31,3.12-.93,4.49-.62,1.37-1.34,2.39-2.16,3.05-.82.67-2.03,1.46-3.62,2.38-1.6.92-2.39,1.72-2.39,2.39.54.39.97.58,1.28.58,1.63-.04,3.72-.87,6.25-2.51,2.53-1.63,5.08-4.17,7.65-7.61,2.57-3.44,5.31-7.64,8.23-12.61,2.92-4.96,6.69-11.06,11.32-18.31,4.63-7.25,8.33-12.76,11.09-16.49,2.76-3.73,7.65-7.86,14.65-12.46,7.01-4.6,15.68-7.37,26.04-8.38,4.12-.4,7.36-.66,9.69-.77,2.34-.11,4.4-.16,6.19-.14-9.42,21.32-18.84,42.56-28.25,63.71-1.95,4.42-2.92,7.21-2.92,8.35,0,1.62,1.13,2.42,3.39,2.38,2.26-.03,5.25-.22,8.99-.58,0,.54,0,1.08,0,1.62-18.84,1.8-37.67,3.25-56.51,4.21v-1.62c.93-.05,2.04-.16,3.33-.33,1.28-.17,2.88-.39,4.79-.67,1.91-.28,3.54-1.12,4.9-2.52,1.36-1.4,3.13-4.33,5.31-8.8,3.35-7.24,6.69-14.5,10.04-21.77-7.59.57-15.18,1.07-22.77,1.5ZM123.22,261.69c5.33-11.91,10.66-23.85,15.99-35.83-4.05,1.1-8.1,3.06-12.14,5.87-4.05,2.82-7.49,5.84-10.33,9.08-2.84,3.24-5.51,6.66-8,10.26-2.49,3.6-5.1,7.64-7.82,12.12,7.43-.43,14.87-.93,22.3-1.49Z"/>
      <path class="cls-1" d="M203.08,290.98c-4.98.61-9.96.17-14.94-1.34-4.98-1.51-9.92-3.11-14.83-4.8-1.56.17-3.56,1.42-6.01,3.73-2.45,2.32-4.34,4.69-5.66,7.12-.66.07-1.32.14-1.98.2,5.76-12.87,11.52-25.76,17.28-38.68.7-.08,1.4-.16,2.1-.23-.08.95-.16,2.36-.23,4.23-.08,1.87-.12,3.2-.12,4.01,0,3.24.27,6.01.82,8.31.54,2.3,1.61,4.9,3.21,7.78,1.59,2.89,4.32,5.04,8.17,6.44,3.85,1.4,8.31,1.79,13.37,1.17,4.67-.58,8.44-2.24,11.32-4.97,2.88-2.73,4.32-5.62,4.32-8.65,0-2.02-.78-3.81-2.34-5.37-1.56-1.55-4.69-3.16-9.4-4.83-4.71-1.67-10.33-3.69-16.87-6.09-7.63-3.76-11.44-9.11-11.44-15.99,0-6.82,3.62-13.15,10.86-19.07,7.24-5.91,15.92-9.5,26.04-10.8,5.29-.68,10.04-.63,14.24.17,3.81.98,7.67,1.95,11.56,2.91,1.87-.25,3.42-1,4.67-2.25,1.24-1.25,2.61-3.05,4.09-5.42.74-.1,1.48-.2,2.22-.3-4.79,10.91-9.57,21.82-14.36,32.72-.7.09-1.4.19-2.1.28.15-.9.27-1.96.35-3.19.08-1.22.12-2.68.12-4.37,0-2.7-.14-4.99-.41-6.88-.27-1.89-.95-3.89-2.04-6-1.09-2.11-3.04-3.78-5.84-4.99-2.8-1.21-6.77-1.49-11.91-.83-3.97.51-7.65,1.94-11.03,4.28-3.39,2.34-5.08,5.13-5.08,8.37,0,2.09.76,3.96,2.28,5.59,1.52,1.63,3.29,2.83,5.31,3.59,2.02.76,5.49,1.99,10.39,3.69,4.9,1.7,8.87,3.16,11.91,4.41,3.04,1.25,5.66,3.24,7.88,5.98,2.22,2.74,3.33,5.93,3.33,9.57,0,7.35-3.7,13.93-11.09,19.7-7.4,5.77-16.77,9.39-28.14,10.79Z"/>
      <path class="cls-1" d="M300.56,263.94c-1.95,4.52-2.92,7.39-2.92,8.61,0,1.89,3.85,2.29,11.56,1.22v1.62c-18.49,2.57-36.97,5.19-55.46,7.73v-1.62c2.14-.43,4.28-.86,6.42-1.29,2.88-.67,5-1.76,6.36-3.26,1.36-1.51,3.29-4.93,5.78-10.27,2.49-5.34,5.82-12.82,9.98-22.45,4.16-9.62,7.61-17.6,10.33-23.92,2.72-6.32,4.94-11.49,6.65-15.51-1.09.25-2.18.51-3.27.76-4.44.96-10.61,5.18-18.51,12.66-7.9,7.48-15.2,15.26-21.89,23.34-.66.09-1.32.18-1.98.27,5.02-11.52,10.04-23.05,15.06-34.58,30.74-4.28,61.49-8.68,92.23-12.59-5.02,11.47-10.04,22.95-15.06,34.44-.66.09-1.32.17-1.98.26,0-9.85-1.19-17.22-3.56-22.1-2.37-4.88-5.24-7.09-8.58-6.64-1.21.1-2.41.19-3.62.29-9.18,20.99-18.37,42-27.55,63.02Z"/>
      <path class="cls-1" d="M390.58,228.23c-3.66,8.42-7.32,16.84-10.98,25.27-1.95,4.42-2.92,7.27-2.92,8.55,0,1.08.76,1.73,2.28,1.95,1.52.22,4.61.05,9.28-.49v1.62c-18.49,2.14-36.97,4.52-55.46,7.02v-1.62c2.14-.42,4.28-.85,6.42-1.27,2.88-.65,5-1.73,6.36-3.22,1.36-1.5,3.21-4.71,5.55-9.63,2.33-4.93,5.08-10.97,8.23-18.12,3.15-7.15,5.62-12.82,7.41-17.03,1.79-4.2,3.75-8.83,5.9-13.89,2.14-5.05,3.21-8.19,3.21-9.4,0-1.48-.74-2.36-2.22-2.61-1.48-.26-4.63-.09-9.46.52,0-.54,0-1.08,0-1.62,17.55-2.24,35.1-4.32,52.65-6.1,10.2-1.02,18.14-.37,23.82,1.86,5.68,2.23,8.52,6.2,8.52,11.86,0,6.28-3.2,11.39-9.6,15.4-6.4,4.02-13.79,6.42-22.16,7.26-.97.06-1.94.13-2.91.19v.61c3.74.57,6.56,1.09,8.46,1.54,1.91.46,3.87,1.61,5.9,3.44,2.02,1.84,3.37,3.54,4.03,5.1.66,1.56.99,3.59.99,6.09,0,2.77-.45,5.68-1.35,8.72-.9,3.05-1.35,4.78-1.35,5.18,0,.61.1,1.14.29,1.59.2.46.85.63,1.94.53,1.17-.1,2.51-.78,4.03-2.02,1.52-1.24,2.8-2.53,3.85-3.87,1.05-1.34,1.95-2.61,2.69-3.81.74-1.21,1.58-2.69,2.51-4.45.51.13,1.01.26,1.52.39-2.8,5.96-6.21,10.45-10.22,13.49-4.01,3.04-9.3,4.86-15.86,5.5-6.64.64-11.8-.17-15.47-2.48-3.67-2.31-5.51-6.09-5.51-11.35,0-1.96.74-5.23,2.22-9.81,1.48-4.58,2.22-7.1,2.22-7.58,0-1.48-.41-2.64-1.23-3.46-.82-.82-2.28-1.12-4.38-.89-1.21.1-2.41.2-3.62.3-1.87.24-3.74.49-5.6.73ZM391.51,226.3c3.42-.49,6.85-.97,10.27-1.45,5.21-.57,9.71-3.77,13.49-9.61,3.77-5.85,5.66-11.69,5.66-17.57,0-5.19-2.45-7.56-7.36-7.06-2.06.14-4.13.29-6.19.44-5.29,11.73-10.59,23.48-15.88,35.25Z"/>
      <path class="cls-1" d="M459.82,224.48c-.39.7-1.71,3.02-3.97,6.96-2.26,3.94-5.08,8.54-8.46,13.8-3.39,5.26-7.03,9.27-10.68,12.27-2.28,1.8-39.64,31.16-73.94,41.95-26.18,8.09-65.41,18.91-89.52,17-70.87-5.2-139.87-3.33-175.66,3.27-35.89,6.77,17.24-9.69,54.95-16.69,19.92-3.5,50.26-5.63,90.88-3.93,50.14,2.01,119.27-18.13,148.8-27.36,33.88-10.81,38.72-13.99,39.03-14.09,1.63-.15,8.48-5.47,11.05-9.02,2.57-3.55,5.31-7.85,8.23-12.9,2.92-5.05,6.69-11.23,11.32-18.53,4.63-7.29,8.33-12.78,11.09-16.48,2.76-3.7,7.65-7.77,14.65-12.14,7.01-4.36,15.68-6.7,26.04-6.89,4.12-.07,7.36-.04,9.69.08,2.34.12,4.4.28,6.19.48-9.42,20.31-18.84,40.78-28.25,61.38-1.95,4.31-2.92,7.04-2.92,8.19,0,1.62,1.13,2.48,3.39,2.57,2.26.1,5.25.1,8.99.02v1.62c-18.84.39-37.67,1.35-56.51,2.74v-1.62c.93-.07,2.04-.2,3.33-.39,1.28-.19,2.88-.44,4.79-.73,1.91-.3,3.54-1.14,4.9-2.54,1.36-1.4,3.13-4.33,5.31-8.77,3.35-7.21,6.69-14.41,10.04-21.59-7.59.37-15.18.82-22.77,1.35ZM483.63,220.75c5.33-11.76,10.66-23.48,15.99-35.16-4.05.87-8.1,2.65-12.14,5.32-4.05,2.68-7.49,5.62-10.33,8.81-2.84,3.19-5.51,6.58-8,10.18-2.49,3.59-5.1,7.64-7.82,12.14,7.43-.5,14.87-.94,22.3-1.29Z"/>
    </g>
    <g>
      <path class="cls-1" d="M236.34,453.69c2.37.06,4.74.08,7.11.06-1.19-2.54-2.38-5.09-3.57-7.65-1.18,2.54-2.36,5.07-3.54,7.59Z"/>
      <path class="cls-1" d="M204.05,428.98v35.94c59.36,14.38,118.71-14.38,178.07,0v-35.94c-59.36-14.38-118.71,14.38-178.07,0ZM247.01,461.32c-.66-1.39-1.32-2.78-1.97-4.17-3.42.05-6.85.03-10.27-.09-.65,1.38-1.3,2.76-1.95,4.13-2.08-.09-4.15-.22-6.23-.39,3.53-6.53,7.06-13.16,10.59-19.9,1.81.04,3.62.06,5.43.05,3.55,6.8,7.1,13.51,10.64,20.15-2.08.1-4.15.18-6.23.23ZM275.66,442.23c-2.9.31-5.81.6-8.71.86v17.03c-1.95.18-3.91.34-5.86.48v-17.03c-2.86.21-5.73.39-8.59.52v-3.41c7.72-.35,15.44-1.04,23.16-1.86v3.41ZM284.3,444.96c.93.34,2.3.6,4.11.77,3.33.32,5.76.92,7.29,1.8,1.52.88,2.29,2.12,2.29,3.71,0,1.77-.93,3.27-2.79,4.5-1.86,1.23-4.37,2.04-7.52,2.42-2.19.26-4.18.21-5.98-.16-1.8-.37-3.17-1-4.11-1.9-.94-.9-1.42-2.01-1.42-3.33,1.96-.21,3.92-.43,5.88-.66,0,2.26,1.88,3.17,5.62,2.72,1.39-.17,2.48-.5,3.26-1,.78-.5,1.17-1.12,1.17-1.85,0-.8-.39-1.36-1.17-1.69-.78-.33-2.19-.61-4.22-.84-2.03-.23-3.64-.51-4.82-.83-3.23-.88-4.84-2.4-4.84-4.52,0-1.1.43-2.14,1.3-3.1.87-.96,2.11-1.78,3.73-2.45,1.62-.67,3.44-1.13,5.46-1.37,2.03-.24,3.84-.2,5.43.14,1.59.34,2.82.93,3.7,1.79.88.86,1.32,1.9,1.32,3.13-1.95.23-3.91.47-5.86.71,0-.94-.41-1.61-1.23-2.03-.82-.42-1.97-.54-3.46-.36-1.43.17-2.55.52-3.34,1.05-.79.53-1.19,1.15-1.19,1.86,0,.66.46,1.17,1.4,1.51ZM321.83,447.14c0,2.24-.97,4.08-2.92,5.56-1.95,1.48-4.61,2.38-7.98,2.74-3.32.35-5.96.03-7.91-1.01-1.95-1.04-2.95-2.65-2.99-4.86v-13.62c1.95-.23,3.91-.46,5.86-.68v13.49c0,1.34.45,2.26,1.34,2.78.89.51,2.12.68,3.7.52,3.29-.35,4.97-1.75,5.02-4.25v-13.6c1.96-.19,3.92-.37,5.88-.53v13.46ZM331.95,448.68c1.13,1.04,2.79,1.5,4.98,1.43,2.2-.07,3.77-.43,4.71-1.12v-3.52c-1.78.02-3.55.07-5.33.13v-3.1c3.73-.13,7.46-.18,11.19-.13v8.16c-1.05.89-2.55,1.58-4.47,2.1-1.93.51-4.06.81-6.41.89-2.46.08-4.62-.19-6.47-.86-1.86-.66-3.29-1.69-4.3-3.08-1.01-1.4-1.53-3.08-1.55-5.07v-1.39c0-2.04.48-3.84,1.44-5.41.96-1.56,2.34-2.8,4.14-3.7,1.8-.9,3.92-1.4,6.34-1.49,3.37-.12,6.01.43,7.91,1.58,1.9,1.15,3.03,2.86,3.38,5.07-1.9-.03-3.8-.03-5.7,0-.26-1.17-.84-2.02-1.73-2.54-.89-.52-2.12-.77-3.68-.71-1.99.07-3.51.68-4.55,1.81-1.04,1.13-1.57,2.76-1.58,4.89v1.31c0,2.14.57,3.73,1.7,4.76ZM356.83,453.47c-1.95-.13-3.91-.22-5.86-.28v-20.44c1.95.06,3.91.16,5.86.28v20.44Z"/>
    </g>
    <g>
      <path class="cls-1" d="M149.8,384.62c-2.77-8.6-4.15-12.9-6.91-21.49-.12-.37-.31-.62-.58-.76-.27-.13-.69-.18-1.25-.13-.08-.24-.12-.36-.19-.59,3.75-1.22,5.62-1.81,9.39-2.95.07.24.11.36.18.6-.5.27-.81.54-.96.81-.14.27-.16.59-.04.96,2.64,8.64,3.97,12.95,6.61,21.59.12.39.31.65.58.79.26.14.66.2,1.18.16.07.24.11.36.18.6-3.56,1.08-5.34,1.64-8.88,2.79-.08-.24-.12-.36-.19-.59.46-.29.75-.56.89-.82.13-.26.13-.58.01-.97Z"/>
      <path class="cls-1" d="M168.01,362.73c1.64,6.14,2.47,9.22,4.11,15.36.1.39.28.66.53.82.25.16.65.23,1.19.24l.14.53c-3.33.88-5,1.34-8.32,2.28-.06-.21-.09-.32-.15-.53.46-.25.76-.51.9-.78.14-.27.16-.6.05-.99-1.72-6.13-2.58-9.19-4.31-15.32-2.88.81-4.31,1.22-7.18,2.08-.46.14-.79.33-.97.58-.19.25-.28.62-.29,1.1-.23.07-.35.11-.58.18-.75-2.47-1.12-3.71-1.87-6.19.24-.07.36-.11.59-.18.26.4.54.65.84.76.3.11.68.09,1.14-.05,8.14-2.42,12.22-3.54,20.43-5.61.47-.12.81-.3,1.01-.53.2-.24.32-.6.35-1.09.24-.06.36-.09.6-.15.62,2.51.93,3.77,1.54,6.28-.24.06-.35.09-.59.15-.26-.41-.53-.68-.81-.8-.29-.12-.66-.12-1.13,0-2.89.73-4.34,1.1-7.22,1.87Z"/>
      <path class="cls-1" d="M200.67,367.87c-4.43.89-6.65,1.36-11.07,2.35-.29,1.04-.43,1.56-.72,2.61-.17.63-.22,1.1-.15,1.42.14.61.68.89,1.62.85.05.21.07.32.12.53-3.49.79-5.23,1.2-8.71,2.05-.05-.21-.08-.32-.13-.53.52-.21.88-.45,1.09-.73.21-.28.41-.78.61-1.5,1.96-7.13,3-10.69,5.21-17.8.21-.67.26-1.23.16-1.68-.11-.52-.62-.84-1.51-.95-.05-.21-.07-.32-.12-.53,3.86-.86,5.8-1.27,9.67-2.05.04.21.06.32.11.54-.76.44-1.08.96-.96,1.55.09.42.38.9.87,1.44,5,5.39,7.44,8.11,12.2,13.62.65.75,1.14,1.22,1.47,1.42.33.2.79.29,1.4.29.04.22.06.32.1.54-3.91.69-5.86,1.06-9.75,1.83-.04-.21-.06-.32-.11-.54.89-.32,1.28-.8,1.16-1.44-.08-.39-.35-.85-.82-1.36-.7-.77-1.06-1.16-1.76-1.93ZM198.32,365.22c-2.15-2.43-3.24-3.65-5.43-6.06-.95,3.08-1.41,4.62-2.31,7.7,3.09-.68,4.64-1.01,7.74-1.65Z"/>
      <path class="cls-1" d="M218.31,366.21c5.41-.87,8.12-1.27,13.55-1.98.46-.06.8-.19,1-.4.21-.21.36-.56.46-1.05.23-.03.35-.04.59-.07.32,2.57.49,3.85.81,6.41-.23.03-.35.04-.58.07-.2-.45-.43-.74-.69-.9-.26-.15-.62-.2-1.08-.14-8.23,1.08-12.34,1.71-20.53,3.16-.04-.22-.06-.32-.1-.54.48-.2.8-.43.97-.69.17-.25.22-.58.15-.98-1.23-7.05-1.84-10.58-3.07-17.63-.07-.4-.23-.68-.47-.85-.24-.17-.65-.28-1.21-.32-.04-.22-.06-.32-.1-.54,3.54-.63,5.31-.92,8.86-1.48.03.22.05.32.09.54-.52.21-.86.44-1.04.69-.17.25-.23.57-.17.97,1.01,6.29,1.52,9.43,2.53,15.72Z"/>
      <path class="cls-1" d="M239.5,347.27c.79,7.11,1.18,10.66,1.97,17.76.04.4.18.7.4.89.22.19.6.33,1.13.42.02.22.04.33.06.54-3.41.37-5.11.57-8.51,1-.03-.22-.04-.33-.07-.54.49-.18.82-.39,1-.64.18-.25.25-.57.2-.97-.88-7.1-1.32-10.65-2.19-17.76-.05-.4-.19-.69-.43-.87-.24-.18-.63-.31-1.19-.38-.03-.22-.04-.33-.07-.54,3.56-.45,5.34-.66,8.91-1.04.02.22.04.33.06.54-.53.19-.88.4-1.07.64-.19.24-.26.56-.21.96Z"/>
      <path class="cls-1" d="M263,359.68c-4.49.29-6.74.46-11.23.85-.42.99-.63,1.49-1.05,2.49-.25.6-.36,1.06-.33,1.38.06.62.55.98,1.49,1.06.02.22.03.33.05.54-3.54.31-5.32.49-8.85.87-.02-.22-.04-.33-.06-.54.54-.14.93-.33,1.17-.58.24-.25.51-.71.8-1.4,2.87-6.8,4.37-10.19,7.49-16.94.29-.64.42-1.18.38-1.64-.04-.53-.5-.91-1.36-1.14-.02-.22-.03-.33-.05-.54,3.92-.34,5.89-.48,9.81-.74.01.22.02.33.04.55-.81.34-1.19.81-1.15,1.41.03.43.25.94.67,1.54,4.22,6.01,6.27,9.03,10.24,15.13.55.83.97,1.36,1.27,1.6.3.24.75.4,1.34.47,0,.22.01.33.02.55-3.95.16-5.92.27-9.87.52l-.03-.55c.93-.2,1.37-.62,1.33-1.27-.02-.4-.23-.89-.63-1.46-.59-.86-.89-1.29-1.49-2.15ZM261.04,356.74c-1.8-2.7-2.71-4.04-4.56-6.73-1.34,2.92-2,4.39-3.29,7.32,3.14-.26,4.71-.38,7.86-.6Z"/>
      <path class="cls-1" d="M279.83,349.96c.14,4.96.21,7.44.34,12.4.01.4.12.71.34.93.21.21.58.38,1.08.5,0,.22,0,.33.01.55-3.21.08-4.82.13-8.03.27l-.02-.55c.5-.14.85-.32,1.05-.55.2-.23.29-.55.28-.95-.28-7.15-.42-10.73-.7-17.88-.02-.4-.13-.71-.35-.9-.22-.2-.6-.36-1.15-.48,0-.22-.01-.33-.02-.55,3.89-.16,5.83-.22,9.72-.31,0,.22,0,.33.01.55-.66.16-.98.42-.98.78,0,.31.26.67.75,1.08,5.51,4.53,8.2,6.84,13.45,11.52.03-4.82.04-7.23.06-12.05,0-.4-.1-.71-.31-.93-.21-.22-.59-.39-1.13-.52,0-.22,0-.33,0-.55,3.36,0,5.05.03,8.41.09,0,.22,0,.33-.01.55-.54.12-.92.29-1.14.5-.21.21-.32.52-.33.92-.12,7.15-.18,10.72-.3,17.87,0,.4.09.71.29.93.2.22.56.4,1.07.56,0,.22,0,.33-.01.55-3.46-.07-5.2-.09-8.66-.09,0-.22,0-.33,0-.55.63-.12.95-.35.95-.71,0-.18-.09-.37-.26-.56-.17-.19-.57-.58-1.19-1.15-5.17-4.58-7.82-6.83-13.24-11.26Z"/>
      <path class="cls-1" d="M340.89,352.62c3.28,1.47,4.74,3.75,4.4,6.79-.27,2.42-1.45,4.21-3.52,5.38-1.05.58-2.23.96-3.55,1.14-1.32.18-2.92.18-4.81.02-8.04-.7-12.06-.96-20.11-1.31.01-.25.02-.37.03-.62.52-.11.89-.26,1.1-.46.21-.2.33-.5.35-.9.42-9.01.63-13.52,1.05-22.53.02-.4-.07-.71-.28-.93-.2-.22-.57-.4-1.12-.56.01-.25.02-.37.03-.62,8.43.37,12.65.64,21.06,1.37,2.02.17,3.63.46,4.83.83,1.2.38,2.23.93,3.09,1.64,1.7,1.42,2.41,3.29,2.16,5.61-.28,2.59-1.86,4.3-4.71,5.16ZM322.07,349.01c4.67.28,7,.45,11.66.84,1.77.15,3.02.04,3.76-.35.83-.44,1.31-1.21,1.41-2.3.11-1.12-.19-1.94-.9-2.49-.71-.54-1.96-.9-3.75-1.05-4.72-.4-7.08-.57-11.81-.86-.15,2.48-.22,3.72-.37,6.2ZM321.37,360.65c4.41.27,6.61.42,11.01.79,2.04.17,3.54.05,4.48-.37,1.08-.48,1.69-1.39,1.82-2.71.13-1.31-.3-2.32-1.29-3.01-.84-.59-2.32-.98-4.41-1.16-4.47-.37-6.7-.54-11.18-.81-.17,2.9-.26,4.35-.44,7.25Z"/>
      <path class="cls-1" d="M365.5,364.32c-4.46-.69-6.7-1.01-11.17-1.6-.63.88-.94,1.32-1.56,2.2-.38.53-.58.96-.62,1.28-.08.62.33,1.07,1.22,1.36-.03.22-.04.33-.07.54-3.53-.46-5.3-.67-8.84-1.07.02-.22.04-.33.06-.54.55-.02.98-.12,1.27-.31.29-.19.65-.59,1.09-1.19,4.28-6.02,6.47-9,10.99-14.92.42-.56.67-1.07.73-1.52.07-.53-.29-1-1.09-1.41.03-.22.04-.33.07-.54,3.91.52,5.86.8,9.76,1.4-.03.22-.05.32-.08.54-.86.16-1.34.53-1.43,1.13-.06.42.04.97.32,1.65,2.83,6.78,4.18,10.18,6.75,16.99.36.93.65,1.54.9,1.84.24.3.65.55,1.21.75-.04.22-.06.32-.1.54-3.91-.7-5.86-1.02-9.78-1.64.03-.22.05-.32.08-.54.95,0,1.48-.31,1.58-.95.06-.4-.04-.92-.3-1.56-.39-.97-.59-1.45-.99-2.42ZM364.21,361.02c-1.18-3.03-1.78-4.54-3-7.55-1.94,2.57-2.91,3.85-4.81,6.44,3.13.42,4.69.64,7.81,1.12Z"/>
      <path class="cls-1" d="M383.58,363.91c-.53,2.74-.8,4.11-1.33,6.85-.08.4-.04.72.12.97.16.25.48.49.96.73-.04.21-.06.32-.11.54-3.37-.66-5.06-.98-8.44-1.58.04-.22.06-.32.1-.54.52-.03.9-.13,1.15-.31s.41-.47.48-.87c1.28-7.04,1.91-10.56,3.19-17.6.07-.4.02-.72-.15-.96-.17-.24-.51-.48-1.02-.72.04-.22.06-.32.1-.54,6.56,1.17,9.83,1.81,16.36,3.2,2.12.45,3.71.9,4.78,1.34,1.07.43,1.98.99,2.74,1.68,1.55,1.41,2.05,3.26,1.51,5.53-.41,1.72-1.27,2.94-2.57,3.66-1.3.72-3.2,1.02-5.69.92,1.34,2.66,1.99,3.99,3.28,6.66.58,1.23,1.07,2.09,1.47,2.58.4.49.9.86,1.49,1.11-.05.21-.08.32-.13.53-3.98-.96-5.98-1.41-9.98-2.28.05-.21.07-.32.12-.53.78-.02,1.21-.22,1.29-.61.06-.28-.07-.75-.41-1.43-1.38-2.86-2.08-4.29-3.51-7.14-2.32-.48-3.49-.71-5.82-1.17ZM384.34,360.02c3.54.69,5.3,1.05,8.83,1.8,1.34.29,2.36.37,3.05.26.97-.15,1.58-.72,1.81-1.74.2-.9.02-1.6-.54-2.1-.56-.5-1.65-.93-3.29-1.27-3.56-.76-5.35-1.13-8.92-1.82-.38,1.95-.57,2.92-.95,4.87Z"/>
      <path class="cls-1" d="M255.15,385.45c.25,2.95.38,4.43.63,7.38-.26.02-.39.03-.65.06-.14-.64-.37-.95-.69-.92-.3.03-.73.25-1.29.68-.56.43-1.04.91-1.44,1.43-.72.92-1.18,1.89-1.39,2.9.91.73,1.68,1.25,2.32,1.53.64.29,1.28.4,1.92.34.59-.05.92-.39,1-1.03.26-.02.39-.03.64-.06.21,2.45.31,3.68.52,6.13-.38-.05-1.55-.04-3.51.02-.75.02-1.72-.24-2.9-.76-1.18-.52-2.22-1.16-3.12-1.92-2.42,2.85-5.43,4.49-9.09,4.97-2.86.37-5.32.03-7.42-1.03-2.36-1.19-3.76-3.01-4.14-5.48-.51-3.31,1.12-6.25,4.99-8.75-2.05-1.26-3.22-2.79-3.48-4.59-.31-2.1.52-3.94,2.52-5.47,1.62-1.24,3.6-2.01,5.89-2.3,2.57-.32,4.9.01,6.95.99,2.01.96,3.11,2.48,3.33,4.55.12,1.15-.05,2.16-.51,3.02-.46.86-1.33,1.83-2.62,2.92,1.52.71,2.75,1.82,3.69,3.33,1.07-2.29,2.19-4.02,3.35-5.19s2.65-2.1,4.49-2.77ZM236.91,392.66c-1.51.19-2.78.79-3.77,1.78-.98.98-1.37,2.12-1.19,3.38.19,1.33.87,2.34,2.05,3.05,1.17.71,2.58.95,4.22.74,1.7-.22,3.09-.81,4.19-1.77,1.1-.96,1.6-1.99,1.47-3.12-.06-.53-.31-1.1-.75-1.69-.44-.6-.97-1.08-1.59-1.44-1.36-.82-2.91-1.14-4.63-.93ZM237.11,382.51c-1.05.13-1.94.49-2.67,1.07-.93.74-1.31,1.68-1.16,2.82.13.96.64,1.7,1.52,2.22.88.52,1.93.71,3.14.55,1.05-.13,1.94-.48,2.66-1.05.92-.74,1.33-1.65,1.2-2.74-.12-1-.6-1.76-1.46-2.29-.86-.53-1.95-.73-3.23-.57Z"/>
      <path class="cls-1" d="M277.66,390.02c-1.63,1.35-2.44,2.04-4.05,3.41.13,2.86.19,4.28.32,7.14.02.4.13.71.33.91.2.21.54.36,1,.46.01.25.02.37.03.62-3.38.14-5.07.23-8.44.43-.02-.25-.02-.37-.04-.62.47-.16.79-.35.96-.57.17-.22.25-.53.22-.93-.53-9.02-.79-13.52-1.32-22.54-.02-.39-.14-.68-.35-.88-.21-.2-.57-.34-1.08-.44-.02-.25-.02-.37-.04-.62,3.59-.22,5.38-.31,8.97-.46.01.25.02.37.03.62-.5.14-.84.32-1.03.54-.19.22-.27.53-.25.92.17,3.73.25,5.59.42,9.32,4.46-3.79,6.73-5.65,11.38-9.32.54-.43.8-.76.8-1.01,0-.38-.42-.63-1.23-.76,0-.25,0-.37-.01-.62,4.7-.09,7.05-.11,11.76-.08,0,.25,0,.38,0,.62-.49.09-.84.19-1.05.31-.21.12-.82.56-1.83,1.32-.65.5-.97.75-1.61,1.25-3.87,2.93-5.78,4.41-9.52,7.42,4.45,4.84,6.62,7.29,10.83,12.23.97,1.14,1.67,1.89,2.1,2.22.43.33.97.55,1.62.66,0,.25,0,.38,0,.62-4.23-.03-6.35-.03-10.58.05,0-.25,0-.37-.01-.62.7-.16,1.05-.41,1.04-.76,0-.18-.33-.66-.98-1.43-3.27-3.8-4.94-5.68-8.36-9.42Z"/>
      <path class="cls-1" d="M303.61,382.43c-.17,7.15-.25,10.72-.42,17.87,0,.4.08.71.26.93.18.22.51.41.98.56,0,.22,0,.33-.01.55-3.14-.08-4.71-.11-7.85-.14v-.55c.47-.11.8-.28.99-.5.19-.22.29-.53.3-.93.08-7.16.12-10.73.2-17.89,0-.4-.09-.71-.28-.92-.19-.21-.54-.39-1.04-.54,0-.22,0-.33,0-.55,3.3.03,4.95.06,8.25.14,0,.22,0,.33-.01.55-.5.12-.85.28-1.05.49-.2.21-.3.52-.31.92Z"/>
      <path class="cls-1" d="M319.32,385.06c-.37,6.35-.56,9.52-.94,15.87-.02.4.05.72.22.94s.49.42.96.6c-.01.22-.02.33-.03.55-3.14-.19-4.71-.28-7.85-.41,0-.22.01-.33.02-.55.47-.1.8-.25,1.01-.46.2-.21.31-.52.33-.92.3-6.36.44-9.54.74-15.9-2.73-.13-4.09-.18-6.81-.26-.44-.01-.78.07-1.01.25-.23.18-.42.5-.57.95-.22,0-.33,0-.56-.02.07-2.59.1-3.88.17-6.46.23,0,.34,0,.56.02.11.46.28.79.51.98.22.2.56.3,1,.31,7.74.24,11.61.44,19.34,1.02.44.03.79-.03,1.03-.2.24-.16.45-.47.63-.93.23.02.34.03.56.04-.2,2.58-.31,3.87-.51,6.44-.22-.02-.33-.03-.56-.04-.1-.47-.26-.81-.47-1.01-.21-.2-.54-.32-.98-.35-2.72-.2-4.08-.29-6.81-.45Z"/>
      <path class="cls-1" d="M349.97,398.07c1.1,2.09,1.65,3.14,2.72,5.24-.2.11-.3.16-.5.27-.29-.26-.52-.41-.71-.43-.23-.03-.78.14-1.66.5-1.95.79-3.63,1.31-5.06,1.54-1.43.23-3.04.25-4.84.05-3.6-.4-6.45-1.52-8.6-3.43-1.21-1.09-2.15-2.4-2.8-3.93-.7-1.65-.98-3.4-.84-5.26.2-2.56,1.15-4.76,2.88-6.58,2.72-2.85,6.68-4.05,11.8-3.48,1.9.21,3.56.61,4.98,1.19s3.01,1.51,4.74,2.79c.79.59,1.3.9,1.53.94.19.03.47-.05.83-.22.17.17.25.25.42.41-1.65,1.7-2.47,2.56-4.1,4.27-.16-.15-.24-.22-.41-.37.03-.15.07-.25.08-.28.04-.1.05-.2.05-.25.08-.63-.74-1.46-2.49-2.49-1.66-.98-3.38-1.57-5.17-1.77-2.5-.28-4.63.14-6.36,1.21-1.97,1.22-3.06,2.92-3.26,5.11-.2,2.2.54,4.08,2.21,5.65,1.47,1.38,3.39,2.2,5.8,2.47,1.88.21,3.82-.02,5.8-.71,1.55-.54,2.37-1.07,2.44-1.62,0-.03,0-.21.01-.55.19-.11.29-.16.48-.27Z"/>
      <path class="cls-1" d="M372.82,399.99c-5.01-.93-7.52-1.36-12.56-2.14-.46,2.97-.69,4.46-1.15,7.43-.06.4-.02.72.13.96.15.24.45.47.9.69l-.09.54c-3.11-.49-4.67-.73-7.79-1.16.03-.22.05-.32.08-.54.48-.05.83-.17,1.05-.37s.36-.49.42-.89c1.01-7.08,1.52-10.63,2.53-17.71.06-.4,0-.72-.16-.95-.16-.23-.48-.46-.96-.67.03-.22.05-.32.08-.54,3.28.46,4.92.7,8.19,1.22-.03.22-.05.32-.09.54-.52.05-.89.17-1.11.35-.23.18-.37.47-.43.87-.39,2.53-.59,3.79-.98,6.31,5.08.79,7.61,1.22,12.67,2.16.47-2.51.7-3.77,1.16-6.28.07-.4.04-.71-.11-.95s-.46-.48-.94-.71c.04-.22.06-.32.1-.54,3.26.59,4.89.91,8.14,1.56-.04.21-.06.32-.11.54-.52.03-.89.13-1.13.3-.23.17-.39.46-.47.85-1.39,7.01-2.09,10.52-3.48,17.53-.08.4-.05.72.09.96.14.25.43.49.87.72-.04.21-.06.32-.11.54-3.09-.62-4.64-.92-7.75-1.49.04-.22.06-.32.1-.54.48-.03.83-.14,1.06-.32s.38-.47.46-.87c.55-2.96.82-4.45,1.37-7.41Z"/>
      <path class="cls-1" d="M386.03,402.89c-.45,2.08-.68,3.13-1.13,5.21,5.59,1.22,8.38,1.87,13.95,3.28.4.1.74.09,1-.03.26-.12.51-.39.76-.82.22.06.33.08.55.14-.65,2.5-.97,3.76-1.61,6.26-.22-.06-.32-.08-.54-.14,0-.47-.09-.83-.26-1.07-.17-.24-.46-.41-.86-.51-8.08-2.04-12.15-2.96-20.3-4.6.04-.21.06-.32.11-.54.48-.02.84-.12,1.07-.3s.39-.47.47-.86c1.43-7.01,2.15-10.52,3.58-17.53.08-.4.05-.72-.1-.96-.15-.24-.46-.48-.92-.72.04-.21.06-.32.11-.54,8.31,1.67,12.46,2.61,20.7,4.68.43.11.79.1,1.05-.02.27-.12.53-.39.78-.81.22.06.33.08.55.14-.64,2.51-.96,3.76-1.6,6.26-.22-.06-.33-.08-.54-.14-.02-.49-.11-.86-.29-1.09-.18-.23-.48-.4-.91-.51-5.49-1.38-8.25-2.02-13.77-3.23-.41,1.88-.61,2.82-1.02,4.69,3.39.74,5.08,1.12,8.46,1.93.41.1.75.09,1.01-.04s.52-.4.78-.82c.22.05.33.08.54.13-.6,2.45-.89,3.68-1.49,6.13-.21-.05-.32-.08-.53-.13-.02-.48-.12-.84-.3-1.07-.17-.23-.47-.4-.9-.5-3.35-.8-5.03-1.18-8.39-1.91Z"/>
      <path class="cls-1" d="M409.56,403.39c-1.31,4.79-1.96,7.18-3.27,11.97-.11.39-.09.72.03.98s.4.52.82.77c-.06.21-.09.32-.15.53-2.87-.79-4.31-1.18-7.19-1.92.05-.21.08-.32.14-.53.48,0,.84-.08,1.09-.24s.42-.44.52-.83c1.81-6.92,2.71-10.39,4.51-17.31.1-.39.08-.71-.05-.96s-.43-.51-.88-.77c.05-.21.08-.32.14-.53,3.5.9,5.25,1.37,8.74,2.34-.06.21-.09.32-.15.53-.63-.03-1,.14-1.09.49-.08.3.03.71.35,1.23,3.6,5.83,5.32,8.77,8.64,14.67,1.42-4.61,2.13-6.91,3.56-11.51.12-.39.12-.71,0-.97-.12-.26-.41-.53-.85-.8.06-.21.1-.31.16-.52,3,.92,4.5,1.39,7.48,2.36-.07.21-.1.31-.17.52-.52-.03-.91.02-1.16.17-.25.14-.44.41-.56.79-2.19,6.81-3.28,10.21-5.47,17.02-.12.38-.13.71-.02.97.11.26.38.54.79.82-.07.21-.1.31-.17.52-3.06-1-4.6-1.48-7.68-2.42.06-.21.1-.31.16-.52.6.06.95-.08,1.06-.43.05-.17.03-.38-.07-.61-.1-.23-.34-.71-.73-1.42-3.27-5.77-4.97-8.65-8.51-14.36Z"/>
    </g>
    <g>
      <g>
        <path class="cls-1" d="M230.26,148c-4.48-.19-6.72-.29-11.2-.48v9.37c5.26,1.14,7.89,1.71,13.14,2.85v7.2c-7.59-2.46-11.39-3.69-18.98-6.16v-31.21c7.57-2.46,11.36-3.69,18.94-6.14v7.26c-5.24,1.13-7.86,1.7-13.1,2.83v8.34c4.48-.28,6.72-.41,11.2-.69v6.82Z"/>
        <path class="cls-1" d="M250.09,158.29c0-2.15-.39-3.85-1.17-5.05-.78-1.21-2.18-2.51-4.2-3.81-2.02-1.3-3.62-2.47-4.8-3.57-3.22-3.01-4.82-6.58-4.82-11.3,0-2.45.43-4.71,1.29-6.88.86-2.17,2.1-4.08,3.71-5.74,1.61-1.66,3.42-2.88,5.43-3.55,2.02-.67,3.82-.59,5.41.36,1.58.95,2.81,2.7,3.69,5.23.88,2.53,1.31,5.62,1.31,9.16-2.33.31-3.5.46-5.83.77,0-2.52-.41-4.43-1.22-5.64-.82-1.22-1.97-1.63-3.44-1.29-1.43.32-2.53,1.12-3.32,2.35-.79,1.23-1.19,2.67-1.19,4.38,0,1.6.46,2.87,1.39,3.88.93,1.01,2.29,1.95,4.09,2.86,3.32,1.67,5.74,4.07,7.25,7.11,1.52,3.04,2.27,6.97,2.27,11.55,0,5.1-.93,8.92-2.78,11.21-1.85,2.28-4.35,2.77-7.49,1.72-2.18-.73-4.16-2.12-5.95-4.03-1.79-1.91-3.15-4.09-4.09-6.55-.94-2.46-1.41-5.07-1.41-7.96,2.34.28,3.51.42,5.85.7,0,5.37,1.87,8.47,5.6,9.32,1.39.32,2.47.04,3.25-.88.78-.92,1.17-2.39,1.17-4.36Z"/>
        <path class="cls-1" d="M281,120.14c-3.47.75-5.2,1.12-8.67,1.87v57.95c-2.33-.76-3.5-1.14-5.83-1.89v-54.8c-3.42.74-5.13,1.11-8.56,1.85v-10.05c9.22-2.99,13.84-4.49,23.06-7.48v12.55Z"/>
        <path class="cls-1" d="M283.34,176.06c0-2.42.3-4.32.91-5.71.6-1.39,1.36-2.02,2.26-1.85.92.18,1.68,1.1,2.28,2.81.6,1.71.91,3.85.91,6.41s-.3,4.48-.9,5.86c-.6,1.38-1.36,1.9-2.29,1.59-.92-.3-1.68-1.32-2.28-3.01-.6-1.69-.89-3.71-.89-6.1Z"/>
        <path class="cls-1" d="M312.31,180.46c-7.76,2.52-11.64,8.7-19.41,6.18v-11.28c2.87-9.61,5.89-19.21,9.16-28.69,1.26-3.76,2.19-6.93,2.79-9.61.6-2.68.9-5.21.9-7.64,0-3.32-.32-5.98-.95-8.03-.63-2.05-1.54-3.23-2.72-3.5-1.27-.29-2.27.68-3,2.98-.73,2.3-1.1,5.49-1.1,9.52-2.26-.27-3.38-.77-5.64-.5,0-5.03.41-9.86,1.23-13.83.82-3.98,1.99-6.89,3.49-8.73,1.5-1.84,3.21-2.38,5.11-1.75,2.92.97,5.18,3.6,6.8,7.66,1.62,4.06,2.42,9.18,2.42,15.59,0,3.52-.36,7.05-1.09,10.69-.73,3.65-1.97,7.94-3.73,13.12-2.57,7.29-3.86,11.13-6.44,19.22,4.87-1.07,7.3-1.61,12.17-2.69v11.29Z"/>
        <path class="cls-1" d="M333.82,150.09c0,7.83-.81,13.91-2.43,18.59-1.62,4.69-3.99,7.72-7.12,8.76-3.09,1.03-5.45-.49-7.08-4.91-1.63-4.41-2.47-11.41-2.51-20.67v-12.7c0-9.64.82-16.85,2.46-21.3,1.64-4.44,4-5.98,7.09-4.95,3.08,1.03,5.45,4.01,7.08,8.62,1.63,4.6,2.47,10.54,2.51,18.13v10.42ZM328.21,138.21c0-5-.32-8.67-.96-11.1-.64-2.42-1.64-3.83-3-4.14-1.32-.3-2.3.62-2.93,2.82-.63,2.21-.96,5.84-1,10.84v15.91c0,5.33.31,9.26.94,11.7.63,2.45,1.64,3.47,3.03,3.16,1.37-.32,2.37-1.72,2.98-4.16.61-2.43.93-5.98.95-10.7v-14.33Z"/>
        <path class="cls-1" d="M349.12,168.52c-2.25.73-3.37,1.09-5.62,1.82v-38.49c-2.68,1.02-4.03,1.59-6.71,2.86v-8.82c4.69-2.17,7.03-3.03,11.72-4.29.24.08.36.12.6.2v46.73Z"/>
        <path class="cls-1" d="M368.66,127.84v5.56c-.22-.05-.33-.07-.55-.12-2.54-.52-4.58-.15-6.13,1.31-1.55,1.46-2.48,3.86-2.79,7.08,1.5-2.08,3.4-2.88,5.7-2.63,2.46.27,4.42,1.59,5.87,3.69,1.45,2.1,2.18,4.61,2.18,7.78,0,2.03-.4,3.92-1.2,5.78-.8,1.86-1.93,3.52-3.38,4.96-1.46,1.45-3.11,2.54-4.95,3.15-2.98.99-5.39.39-7.22-2.22-1.83-2.6-2.75-6.78-2.75-12.14v-3.13c0-4.76.58-8.97,1.74-12.33,1.16-3.36,2.83-5.64,5-6.82,2.17-1.18,4.69-1.16,7.55-.22.37.12.56.19.93.31ZM363.17,144.85c-.91,0-1.73.3-2.47.96-.74.66-1.28,1.56-1.63,2.68v2.43c0,2.67.37,4.7,1.11,6.03.74,1.33,1.78,1.8,3.11,1.49,1.2-.28,2.18-1.12,2.93-2.46.74-1.34,1.12-2.91,1.12-4.77s-.38-3.39-1.13-4.56c-.75-1.17-1.76-1.79-3.03-1.8Z"/>
      </g>
      <path class="cls-1" d="M390.46,139.1l2.47,4.12,4.68,1.08c.58.13.8.83.41,1.28l-3.15,3.62.42,4.78c.05.59-.54,1.02-1.09.79l-4.42-1.88-4.42,1.88c-.54.23-1.14-.2-1.09-.79l.42-4.78-3.15-3.62c-.39-.45-.16-1.14.41-1.28l4.68-1.08,2.47-4.12c.3-.51,1.04-.51,1.34,0Z"/>
      <path class="cls-1" d="M195.13,139.1l2.47,4.12,4.68,1.08c.58.13.8.83.41,1.28l-3.15,3.62.42,4.78c.05.59-.54,1.02-1.09.79l-4.42-1.88-4.42,1.88c-.54.23-1.14-.2-1.09-.79l.42-4.78-3.15-3.62c-.39-.45-.16-1.14.41-1.28l4.68-1.08,2.47-4.12c.3-.51,1.04-.51,1.34,0Z"/>
    </g>
  </g>
</svg>